<?xml version="1.0" encoding="utf-8"?>
<!-- Generator: Adobe Illustrator 24.2.3, SVG Export Plug-In . SVG Version: 6.00 Build 0)  -->
<svg version="1.1" id="Capa_1" xmlns="http://www.w3.org/2000/svg" xmlns:xlink="http://www.w3.org/1999/xlink" x="0px" y="0px"
	 viewBox="0 0 16 16" style="enable-background:new 0 0 16 16;" xml:space="preserve">
<style type="text/css">
	.st0{fill-rule:evenodd;clip-rule:evenodd;fill:#EEEEEE;}
</style>
<path class="st0" d="M9.5,14.2"/>
<path class="st0" d="M17.1,5.6"/>
<g>
	<path class="st0" d="M14.3,11.4c-0.2,0.2-0.5,0.2-0.7,0L8,6.9l-5.7,4.4c-0.2,0.2-0.5,0.2-0.7,0c-0.2-0.1-0.2-0.4,0-0.6l6-4.7
		C7.8,6,8.2,6,8.3,6.1l6,4.7C14.5,11,14.5,11.2,14.3,11.4z"/>
	<path class="st0" d="M8.4,7.7c-0.3-0.2-0.6-0.2-0.9,0l-5,3.9c-0.2,0.1-0.3,0.2-0.5,0.3c-0.2,0.1-0.5,0-0.7-0.2
		c-0.2-0.3,0.1-0.6,0.1-0.7c0,0,0.1-0.1,0.2-0.2c0.4-0.4,5.2-4.1,6-4.7c0.2,0,0.5,0,0.7,0l6,4.7c0.3,0.2,0.4,0.5,0.2,0.8
		c-0.1,0.3-0.6,0.4-0.9,0.2L8.4,7.7z"/>
	<path class="st0" d="M6,12.6"/>
	<path class="st0" d="M8.8,7.3"/>
	<path class="st0" d="M8,7.4"/>
	<path class="st0" d="M7.5,7.7c0.3-0.2,0.6-0.2,0.9,0l5,3.9c0.2,0.1,0.3,0.2,0.5,0.3c0.2,0.1,0.5,0,0.7-0.2c0.2-0.3-0.1-0.6-0.1-0.7
		c0,0-0.1-0.1-0.2-0.2c-0.4-0.4-5.2-4.1-6-4.7c-0.2,0-0.5,0-0.7,0l-6,4.7c-0.3,0.2-0.4,0.5-0.2,0.8c0.1,0.3,0.6,0.4,0.9,0.2L7.5,7.7
		z"/>
</g>
</svg>
